<mxfile host="app.diagrams.net" modified="2021-05-24T13:25:41.829Z" agent="5.0 (Windows NT 10.0; Win64; x64) AppleWebKit/537.36 (KHTML, like Gecko) Chrome/90.0.4430.212 Safari/537.36" etag="yTJdfDzAd7-Qz1OWAD7f" version="14.7.0" type="github">
  <diagram id="4bJFEw-RrQxMx2iLzS34" name="Page-1">
    <mxGraphModel dx="1102" dy="614" grid="1" gridSize="10" guides="1" tooltips="1" connect="1" arrows="1" fold="1" page="1" pageScale="1" pageWidth="850" pageHeight="1100" math="0" shadow="0">
      <root>
        <mxCell id="0" />
        <mxCell id="1" parent="0" />
        <mxCell id="AvQwQXhb4k9IyeSBc5UQ-13" style="edgeStyle=orthogonalEdgeStyle;rounded=0;orthogonalLoop=1;jettySize=auto;html=1;" edge="1" parent="1" source="AvQwQXhb4k9IyeSBc5UQ-1">
          <mxGeometry relative="1" as="geometry">
            <mxPoint x="430" y="150" as="targetPoint" />
          </mxGeometry>
        </mxCell>
        <mxCell id="AvQwQXhb4k9IyeSBc5UQ-1" value="start" style="ellipse;whiteSpace=wrap;html=1;" vertex="1" parent="1">
          <mxGeometry x="370" y="20" width="120" height="80" as="geometry" />
        </mxCell>
        <mxCell id="AvQwQXhb4k9IyeSBc5UQ-8" style="edgeStyle=orthogonalEdgeStyle;rounded=0;orthogonalLoop=1;jettySize=auto;html=1;exitX=1;exitY=0.5;exitDx=0;exitDy=0;" edge="1" parent="1" source="AvQwQXhb4k9IyeSBc5UQ-4">
          <mxGeometry relative="1" as="geometry">
            <mxPoint x="520" y="350" as="targetPoint" />
          </mxGeometry>
        </mxCell>
        <mxCell id="AvQwQXhb4k9IyeSBc5UQ-10" style="edgeStyle=orthogonalEdgeStyle;rounded=0;orthogonalLoop=1;jettySize=auto;html=1;exitX=0;exitY=0.5;exitDx=0;exitDy=0;" edge="1" parent="1" source="AvQwQXhb4k9IyeSBc5UQ-4" target="AvQwQXhb4k9IyeSBc5UQ-11">
          <mxGeometry relative="1" as="geometry">
            <mxPoint x="280" y="350" as="targetPoint" />
          </mxGeometry>
        </mxCell>
        <mxCell id="AvQwQXhb4k9IyeSBc5UQ-4" value="a&amp;gt;0" style="rhombus;whiteSpace=wrap;html=1;" vertex="1" parent="1">
          <mxGeometry x="385" y="310" width="80" height="80" as="geometry" />
        </mxCell>
        <mxCell id="AvQwQXhb4k9IyeSBc5UQ-12" style="edgeStyle=orthogonalEdgeStyle;rounded=0;orthogonalLoop=1;jettySize=auto;html=1;exitX=0.5;exitY=1;exitDx=0;exitDy=0;entryX=0.5;entryY=0;entryDx=0;entryDy=0;" edge="1" parent="1" source="AvQwQXhb4k9IyeSBc5UQ-5" target="AvQwQXhb4k9IyeSBc5UQ-4">
          <mxGeometry relative="1" as="geometry" />
        </mxCell>
        <mxCell id="AvQwQXhb4k9IyeSBc5UQ-5" value="read a" style="shape=parallelogram;perimeter=parallelogramPerimeter;whiteSpace=wrap;html=1;fixedSize=1;" vertex="1" parent="1">
          <mxGeometry x="365" y="160" width="120" height="60" as="geometry" />
        </mxCell>
        <mxCell id="AvQwQXhb4k9IyeSBc5UQ-16" style="edgeStyle=orthogonalEdgeStyle;rounded=0;orthogonalLoop=1;jettySize=auto;html=1;exitX=0.5;exitY=1;exitDx=0;exitDy=0;" edge="1" parent="1" source="AvQwQXhb4k9IyeSBc5UQ-7">
          <mxGeometry relative="1" as="geometry">
            <mxPoint x="480" y="510" as="targetPoint" />
            <Array as="points">
              <mxPoint x="600" y="390" />
              <mxPoint x="600" y="455" />
              <mxPoint x="490" y="455" />
            </Array>
          </mxGeometry>
        </mxCell>
        <mxCell id="AvQwQXhb4k9IyeSBc5UQ-7" value="print&amp;nbsp;&lt;br&gt;eded menfidir" style="shape=parallelogram;perimeter=parallelogramPerimeter;whiteSpace=wrap;html=1;fixedSize=1;" vertex="1" parent="1">
          <mxGeometry x="530" y="330" width="120" height="60" as="geometry" />
        </mxCell>
        <mxCell id="AvQwQXhb4k9IyeSBc5UQ-9" value="false" style="text;html=1;align=center;verticalAlign=middle;resizable=0;points=[];autosize=1;strokeColor=none;" vertex="1" parent="1">
          <mxGeometry x="460" y="320" width="40" height="20" as="geometry" />
        </mxCell>
        <mxCell id="AvQwQXhb4k9IyeSBc5UQ-19" style="edgeStyle=orthogonalEdgeStyle;rounded=0;orthogonalLoop=1;jettySize=auto;html=1;entryX=0.017;entryY=0.638;entryDx=0;entryDy=0;entryPerimeter=0;" edge="1" parent="1" source="AvQwQXhb4k9IyeSBc5UQ-11" target="AvQwQXhb4k9IyeSBc5UQ-15">
          <mxGeometry relative="1" as="geometry">
            <mxPoint x="360" y="530" as="targetPoint" />
            <Array as="points">
              <mxPoint x="280" y="521" />
            </Array>
          </mxGeometry>
        </mxCell>
        <mxCell id="AvQwQXhb4k9IyeSBc5UQ-11" value="print&amp;nbsp;&lt;br&gt;eded musbetdir" style="shape=parallelogram;perimeter=parallelogramPerimeter;whiteSpace=wrap;html=1;fixedSize=1;" vertex="1" parent="1">
          <mxGeometry x="200" y="320" width="120" height="60" as="geometry" />
        </mxCell>
        <mxCell id="AvQwQXhb4k9IyeSBc5UQ-15" value="end" style="ellipse;whiteSpace=wrap;html=1;" vertex="1" parent="1">
          <mxGeometry x="360" y="470" width="120" height="80" as="geometry" />
        </mxCell>
        <mxCell id="AvQwQXhb4k9IyeSBc5UQ-20" value="true" style="text;html=1;align=center;verticalAlign=middle;resizable=0;points=[];autosize=1;strokeColor=none;" vertex="1" parent="1">
          <mxGeometry x="320" y="330" width="40" height="20" as="geometry" />
        </mxCell>
      </root>
    </mxGraphModel>
  </diagram>
</mxfile>
